<?xml version="1.0" encoding="UTF-8"?>
<svg xmlns="http://www.w3.org/2000/svg" xmlns:xlink="http://www.w3.org/1999/xlink" width="100pt" height="100pt" viewBox="0 0 100 100" version="1.1">
<g id="surface34724">
<path style=" stroke:none;fill-rule:nonzero;fill:rgb(0.784314%,53.333333%,81.960784%);fill-opacity:1;" d="M 87.5 77.082031 C 87.5 79.382812 85.632812 81.25 83.332031 81.25 L 16.667969 81.25 C 14.367188 81.25 12.5 79.382812 12.5 77.082031 L 12.5 31.25 C 12.5 28.949219 14.367188 27.082031 16.667969 27.082031 L 83.332031 27.082031 C 85.632812 27.082031 87.5 28.949219 87.5 31.25 Z M 87.5 77.082031 "/>
<path style=" stroke:none;fill-rule:nonzero;fill:rgb(0.784314%,53.333333%,81.960784%);fill-opacity:1;" d="M 68.75 33.332031 C 68.75 35.632812 66.882812 37.5 64.582031 37.5 L 35.417969 37.5 C 33.117188 37.5 31.25 35.632812 31.25 33.332031 L 31.25 22.917969 C 31.25 20.617188 33.117188 18.75 35.417969 18.75 L 64.582031 18.75 C 66.882812 18.75 68.75 20.617188 68.75 22.917969 Z M 68.75 33.332031 "/>
<path style=" stroke:none;fill-rule:nonzero;fill:rgb(100%,100%,100%);fill-opacity:1;" d="M 77.082031 33.332031 C 74.78125 33.332031 72.917969 35.199219 72.917969 37.5 C 72.917969 39.800781 74.78125 41.667969 77.082031 41.667969 C 79.382812 41.667969 81.25 39.800781 81.25 37.5 C 81.25 35.199219 79.382812 33.332031 77.082031 33.332031 Z M 77.082031 33.332031 "/>
<path style=" stroke:none;fill-rule:nonzero;fill:rgb(70.196078%,89.803922%,98.823529%);fill-opacity:1;" d="M 50 33.332031 C 38.492188 33.332031 29.167969 42.660156 29.167969 54.167969 C 29.167969 65.671875 38.492188 75 50 75 C 61.507812 75 70.832031 65.671875 70.832031 54.167969 C 70.832031 42.660156 61.507812 33.332031 50 33.332031 Z M 50 33.332031 "/>
<path style=" stroke:none;fill-rule:nonzero;fill:rgb(0.392157%,34.117647%,60.784314%);fill-opacity:1;" d="M 50 37.5 C 40.796875 37.5 33.332031 44.960938 33.332031 54.167969 C 33.332031 63.371094 40.796875 70.832031 50 70.832031 C 59.203125 70.832031 66.667969 63.371094 66.667969 54.167969 C 66.667969 44.960938 59.203125 37.5 50 37.5 Z M 50 37.5 "/>
<path style=" stroke:none;fill-rule:nonzero;fill:rgb(0.784314%,46.666667%,74.117647%);fill-opacity:1;" d="M 41.667969 62.5 C 41.667969 64.945312 42.207031 67.257812 43.148438 69.347656 C 45.242188 70.292969 47.554688 70.832031 50 70.832031 C 59.203125 70.832031 66.667969 63.371094 66.667969 54.167969 C 66.667969 51.722656 66.128906 49.410156 65.179688 47.320312 C 63.089844 46.371094 60.777344 45.832031 58.332031 45.832031 C 49.128906 45.832031 41.667969 53.296875 41.667969 62.5 Z M 41.667969 62.5 "/>
</g>
</svg>
